<svg xmlns="http://www.w3.org/2000/svg" version="1.1" xmlns:xlink="http://www.w3.org/1999/xlink" xmlns:svgjs="http://svgjs.dev/svgjs" viewBox="0 0 800 800" opacity="0.35"><defs><filter id="bbburst-blur-1" x="-100%" y="-100%" width="400%" height="400%"><feGaussianBlur in="SourceGraphic" stdDeviation="1"></feGaussianBlur></filter><filter id="bbburst-blur-2" x="-100%" y="-100%" width="400%" height="400%"><feGaussianBlur in="SourceGraphic" stdDeviation="2"></feGaussianBlur></filter><filter id="bbburst-blur-3" x="-100%" y="-100%" width="400%" height="400%"><feGaussianBlur in="SourceGraphic" stdDeviation="4"></feGaussianBlur></filter><filter id="bbburst-blur-4" x="-100%" y="-100%" width="400%" height="400%"><feGaussianBlur in="SourceGraphic" stdDeviation="12"></feGaussianBlur></filter><symbol id="bbburst-shape-9" viewBox="0 0 182 172"><path d="M13.5809 69.845 91 13.5967l77.419 56.2483-29.571 91.012H43.1524L13.5809 69.845Z" stroke-width="22"></path></symbol></defs><use xlink:href="#bbburst-shape-9" width="53.37711114315372" opacity="0.5053024426289039" transform="matrix(0.9966438345752032,-0.0818600452188673,0.0818600452188673,0.9966438345752032,-4.725555667605377,94.83858369627131)" fill="none" stroke="#2c2891" filter="url(#bbburst-blur-1)"></use><use xlink:href="#bbburst-shape-9" width="38.48755036960059" opacity="0.6947270003861867" transform="matrix(0.954840388421381,0.2971192229380429,-0.2971192229380429,0.954840388421381,311.6672291853041,-167.39958442393313)" fill="none" stroke="#00a19d"></use><use xlink:href="#bbburst-shape-9" width="59.17127979146477" opacity="0.6020855288154212" transform="matrix(0.9408175212803456,0.338913545984675,-0.338913545984675,0.9408175212803456,500.7489869405864,-323.651356721309)" fill="none" stroke="#00a19d" filter="url(#bbburst-blur-1)"></use><use xlink:href="#bbburst-shape-9" width="55.99607827263297" opacity="0.6556476993734897" transform="matrix(0.9999556620085188,-0.009416688223836879,0.009416688223836879,0.9999556620085188,270.49866206267956,-235.1295074267445)" fill="none" stroke="#2c2891"></use><use xlink:href="#bbburst-shape-9" width="23.684704667645487" opacity="0.8423975980708108" transform="matrix(0.9997946946575342,0.02026249083029625,-0.02026249083029625,0.9997946946575342,124.27801280073363,-308.3825162044382)" fill="none" stroke="#00a19d"></use><use xlink:href="#bbburst-shape-9" width="36.80783755549656" opacity="0.7678308534066643" transform="matrix(0.9890411845849223,0.14763988348293175,-0.14763988348293175,0.9890411845849223,237.0775810337588,-274.429540535967)" fill="none" stroke="#ffa6d5"></use><use xlink:href="#bbburst-shape-9" width="13.50744918729631" opacity="0.9667114815795048" transform="matrix(0.7556600417810363,-0.6549640457731115,0.6549640457731115,0.7556600417810363,-251.85933632570308,-268.3398408827669)" fill="none" stroke="#ffbd9b"></use><use xlink:href="#bbburst-shape-9" width="72.13482226305656" opacity="0.10384967716842852" transform="matrix(0.9995523235647009,-0.029919098522641643,0.029919098522641643,0.9995523235647009,498.72276659121286,310.8024684039487)" fill="none" stroke="#ffa6d5" filter="url(#bbburst-blur-3)"></use><use xlink:href="#bbburst-shape-9" width="61.00448508909391" opacity="0.21496388658731813" transform="matrix(0.7280625759712452,0.6855106749497886,-0.6855106749497886,0.7280625759712452,979.3558117687662,-16.392692103633635)" fill="none" stroke="#ff5c58" filter="url(#bbburst-blur-3)"></use><use xlink:href="#bbburst-shape-9" width="36.740482908225474" opacity="0.6117766439554031" transform="matrix(0.8204883193990027,0.5716632905214398,-0.5716632905214398,0.8204883193990027,280.3592793137432,43.56358427347561)" fill="none" stroke="#00a19d" filter="url(#bbburst-blur-1)"></use><use xlink:href="#bbburst-shape-9" width="72.11260503506954" opacity="0.010938102458394772" transform="matrix(0.7270120623123145,-0.6866246873310013,0.6866246873310013,0.7270120623123145,417.18497045090476,413.43035027095624)" fill="none" stroke="#00a19d" filter="url(#bbburst-blur-3)"></use><use xlink:href="#bbburst-shape-9" width="77.4449571418489" opacity="0.28109940262811195" transform="matrix(0.9354297361759609,0.35351267117003343,-0.35351267117003343,0.9354297361759609,817.9873768097309,-293.52864146559074)" fill="none" stroke="#2c2891" filter="url(#bbburst-blur-2)"></use><use xlink:href="#bbburst-shape-9" width="60.26486484863237" opacity="0.37540823148980773" transform="matrix(0.9841276404904754,0.1774620726314488,-0.1774620726314488,0.9841276404904754,118.31500758530925,220.43998362718895)" fill="none" stroke="#2c2891" filter="url(#bbburst-blur-2)"></use><use xlink:href="#bbburst-shape-9" width="67.57557660686273" opacity="0.19456485178828187" transform="matrix(0.9815986972707386,0.19095548569336493,-0.19095548569336493,0.9815986972707386,392.6025851835109,326.2132189741234)" fill="none" stroke="#ffbd9b" filter="url(#bbburst-blur-3)"></use><use xlink:href="#bbburst-shape-9" width="25.167877697563398" opacity="0.8676472779202903" transform="matrix(0.9756413346728318,0.2193717987294981,-0.2193717987294981,0.9756413346728318,205.13238029946947,-366.4450376273397)" fill="none" stroke="#ffbd9b"></use><use xlink:href="#bbburst-shape-9" width="29.446994273116886" opacity="0.7045555988151382" transform="matrix(0.9998091374848167,-0.01953685240428578,0.01953685240428578,0.9998091374848167,21.211984075302258,-107.64749339611677)" fill="none" stroke="#ffa6d5"></use><use xlink:href="#bbburst-shape-9" width="25.105037274727625" opacity="0.8700826606411312" transform="matrix(0.7930308244935855,-0.6091815094066989,0.6091815094066989,0.7930308244935855,-179.82432631550722,-202.85207294705737)" fill="none" stroke="#ffbd9b"></use><use xlink:href="#bbburst-shape-9" width="61.04988238501777" opacity="0.47186928364244585" transform="matrix(0.9531959272533628,0.30235331033015306,-0.30235331033015306,0.9531959272533628,270.87118613795053,106.00672079573951)" fill="none" stroke="#ffa6d5" filter="url(#bbburst-blur-1)"></use><use xlink:href="#bbburst-shape-9" width="14.816733473768814" opacity="0.9475254956641924" transform="matrix(0.8136551160476027,0.5813478753118155,-0.5813478753118155,0.8136551160476027,274.5603587540914,-308.62658524195507)" fill="none" stroke="#ffa6d5"></use><use xlink:href="#bbburst-shape-9" width="20.464098111112655" opacity="0.8481556220081966" transform="matrix(0.9739670501615886,-0.22668962305216725,0.22668962305216725,0.9739670501615886,-68.78068488849702,-238.944255657941)" fill="none" stroke="#ffa6d5"></use><use xlink:href="#bbburst-shape-9" width="54.23913103096393" opacity="0.5646679572260892" transform="matrix(0.7300252744661782,-0.6834201479621312,0.6834201479621312,0.7300252744661782,19.74245103464733,28.65716781924982)" fill="none" stroke="#00a19d" filter="url(#bbburst-blur-1)"></use><use xlink:href="#bbburst-shape-9" width="31.722493901296602" opacity="0.8024807688836504" transform="matrix(0.9642914797295848,-0.2648432406555387,0.2648432406555387,0.9642914797295848,72.51716982324788,-343.6025812778194)" fill="none" stroke="#2c2891"></use><use xlink:href="#bbburst-shape-9" width="34.6675328822277" opacity="0.6880525575048501" transform="matrix(0.9460087958303125,0.3241409542339292,-0.3241409542339292,0.9460087958303125,252.71555551360663,-105.16600539261418)" fill="none" stroke="#00a19d"></use><use xlink:href="#bbburst-shape-9" width="74.28543216578802" opacity="0.17239800639803948" transform="matrix(0.9995340864888598,0.030522286069043076,-0.030522286069043076,0.9995340864888598,651.9196523856377,74.82795518399502)" fill="none" stroke="#00a19d" filter="url(#bbburst-blur-3)"></use><use xlink:href="#bbburst-shape-9" width="76.90390164720485" opacity="0.4534142630452236" transform="matrix(0.7409772677610326,0.6715301100184526,-0.6715301100184526,0.7409772677610326,781.5380304458752,-245.1411086494938)" fill="none" stroke="#ffbd9b" filter="url(#bbburst-blur-1)"></use><use xlink:href="#bbburst-shape-9" width="66.7912264839075" opacity="0.44041266024489834" transform="matrix(0.9740242707090281,-0.22644363552492713,0.22644363552492713,0.9740242707090281,204.93691677287327,70.79006258577533)" fill="none" stroke="#ff5c58" filter="url(#bbburst-blur-2)"></use><use xlink:href="#bbburst-shape-9" width="61.93389446176077" opacity="0.33631568543787616" transform="matrix(0.9831881115368057,-0.1825955567167222,0.1825955567167222,0.9831881115368057,162.10505752243415,220.16154578723138)" fill="none" stroke="#ffbd9b" filter="url(#bbburst-blur-2)"></use><use xlink:href="#bbburst-shape-9" width="24.748379347774506" opacity="0.7801652161741521" transform="matrix(0.9697216216101044,-0.24421297381971616,0.24421297381971616,0.9697216216101044,-65.77789465268025,-169.63130522869452)" fill="none" stroke="#ffa6d5"></use><use xlink:href="#bbburst-shape-9" width="50.05524600492338" opacity="0.36861111426790205" transform="matrix(0.9802287040606481,-0.19786785422494055,0.19786785422494055,0.9802287040606481,476.4561720787701,-138.4387648529779)" fill="none" stroke="#00a19d" filter="url(#bbburst-blur-2)"></use><use xlink:href="#bbburst-shape-9" width="56.83807489735244" opacity="0.27292364760097854" transform="matrix(0.9890840573045313,-0.14735239253573962,0.14735239253573962,0.9890840573045313,387.016999039915,159.39839571804117)" fill="none" stroke="#ff5c58" filter="url(#bbburst-blur-2)"></use><use xlink:href="#bbburst-shape-9" width="70.18843409436937" opacity="0.5249871224949288" transform="matrix(0.9989377620522244,0.04607979542156684,-0.04607979542156684,0.9989377620522244,410.76825533369566,-194.3224404756224)" fill="none" stroke="#00a19d" filter="url(#bbburst-blur-1)"></use><use xlink:href="#bbburst-shape-9" width="58.25674437923699" opacity="0.392388296071257" transform="matrix(0.9994616549902292,-0.03280853858665523,0.03280853858665523,0.9994616549902292,435.4441228570782,-23.72009948253202)" fill="none" stroke="#2c2891" filter="url(#bbburst-blur-2)"></use><use xlink:href="#bbburst-shape-9" width="46.24185809378433" opacity="0.5800585802530349" transform="matrix(0.9334405143157979,0.35873222079130107,-0.35873222079130107,0.9334405143157979,319.36221535850933,-11.27567795490154)" fill="none" stroke="#00a19d" filter="url(#bbburst-blur-1)"></use><use xlink:href="#bbburst-shape-9" width="45.76274805421833" opacity="0.7178361036611342" transform="matrix(0.8410116729805875,0.5410169737729059,-0.5410169737729059,0.8410116729805875,474.4853945298954,-296.1143795174906)" fill="none" stroke="#2c2891"></use><use xlink:href="#bbburst-shape-9" width="19.905182475480775" opacity="0.9137729828528623" transform="matrix(0.9708955321886129,-0.239503372786669,0.239503372786669,0.9708955321886129,-80.31592266686644,-303.63637185116005)" fill="none" stroke="#2c2891"></use><use xlink:href="#bbburst-shape-9" width="59.358538485068735" opacity="0.2505472444641821" transform="matrix(0.8890438496479299,0.45782205429969075,-0.45782205429969075,0.8890438496479299,277.88824294163265,370.0655378465978)" fill="none" stroke="#2c2891" filter="url(#bbburst-blur-2)"></use><use xlink:href="#bbburst-shape-9" width="15.897446243080369" opacity="0.9098631315855076" transform="matrix(0.939505018222727,0.34253513795567503,-0.34253513795567503,0.939505018222727,210.226377713917,-338.36017132245314)" fill="none" stroke="#2c2891"></use><use xlink:href="#bbburst-shape-9" width="41.76261096941424" opacity="0.787179866123089" transform="matrix(0.9853904660366926,0.1703103914738908,-0.1703103914738908,0.9853904660366926,164.11461385856495,-219.90061168321847)" fill="none" stroke="#2c2891"></use></svg>