<svg xmlns="http://www.w3.org/2000/svg" version="1.1" xmlns:xlink="http://www.w3.org/1999/xlink" xmlns:svgjs="http://svgjs.dev/svgjs" viewBox="0 0 800 800"><defs><filter id="llleaves-blur-2" x="-100%" y="-100%" width="400%" height="400%"><feGaussianBlur in="SourceGraphic" stdDeviation="2"></feGaussianBlur></filter><filter id="llleaves-blur-3" x="-100%" y="-100%" width="400%" height="400%"><feGaussianBlur in="SourceGraphic" stdDeviation="4"></feGaussianBlur></filter><filter id="llleaves-blur-4" x="-100%" y="-100%" width="400%" height="400%"><feGaussianBlur in="SourceGraphic" stdDeviation="12"></feGaussianBlur></filter></defs><g fill="hsl(231, 100%, 64%)"><path d="M703 268H753C781 268 803 290 803 318H753C725 318 703 296 703 268Z " transform="matrix(0.5093853276220964,-0.3182992795433406,0.3182992795433406,0.5093853276220964,276.1711593943626,383.42945650286117)" opacity="0.92"></path><path d="M498 177H548C576 177 598 199 598 227H548C520 227 498 205 498 177Z " transform="matrix(-0.17956726083379687,-0.44444456659370524,0.44444456659370524,-0.17956726083379687,556.6250564849922,481.8282091817774)" opacity="0.74"></path><path d="M447 88H497C525 88 547 110 547 138H497C469 138 447 116 447 88Z " transform="matrix(-0.38535402186639095,-0.07490523389785216,0.07490523389785216,-0.38535402186639095,680.056657437139,193.77290571813467)" filter="url(#llleaves-blur-2)" opacity="0.60"></path><path d="M283 81H333C361 81 383 103 383 131H333C305 131 283 109 283 81Z " transform="matrix(-0.2502520992920492,0.19551836818000995,-0.19551836818000995,-0.2502520992920492,437.05889609133345,67.41910592101391)" filter="url(#llleaves-blur-2)" opacity="0.49"></path><path d="M355 212H405C433 212 455 234 455 262H405C377 262 355 240 355 212Z " transform="matrix(-0.38422412793158944,-0.10295254479182159,0.10295254479182159,-0.38422412793158944,536.211018696632,369.75689896047436)" filter="url(#llleaves-blur-2)" opacity="0.61"></path><path d="M-9 497H41C69 497 91 519 91 547H41C13 547 -9 525 -9 497Z " transform="matrix(0.09615064691054137,0.1665378056296731,-0.1665378056296731,0.09615064691054137,123.99055801535717,464.98131228188083)" filter="url(#llleaves-blur-4)" opacity="0.29"></path><path d="M537 528H587C615 528 637 550 637 578H587C559 578 537 556 537 528Z " transform="matrix(-9.407518951676337e-17,-0.5121214790651595,0.5121214790651595,-9.407518951676337e-17,303.79682207696686,853.6153082112485)" opacity="0.79"></path><path d="M148 485H198C226 485 248 507 248 535H198C170 535 148 513 148 485Z " transform="matrix(1.4560451210439974e-17,0.23779021380821844,-0.23779021380821844,1.4560451210439974e-17,319.2730090421914,462.91753766597276)" filter="url(#llleaves-blur-3)" opacity="0.36"></path><path d="M-12 255H38C66 255 88 277 88 305H38C10 305 -12 283 -12 255Z " transform="matrix(0.09615064691054137,0.1665378056296731,-0.1665378056296731,0.09615064691054137,80.9768609937079,246.74938225112084)" filter="url(#llleaves-blur-4)" opacity="0.29"></path><path d="M421 500H471C499 500 521 522 521 550H471C443 550 421 528 421 500Z " transform="matrix(-0.3088523305333268,-0.31982595075212433,0.31982595075212433,-0.3088523305333268,448.56082353633167,837.7854963342472)" opacity="0.68"></path><path d="M585 150H635C663 150 685 172 685 200H635C607 200 585 178 585 150Z " transform="matrix(0.2324939482480593,-0.4985848809945541,0.4985848809945541,0.2324939482480593,400.11398868843537,450.91495848813145)" opacity="0.85"></path><path d="M208 115H258C286 115 308 137 308 165H258C230 165 208 143 208 115Z " transform="matrix(-0.1766685768312403,0.2344471200269449,-0.2344471200269449,-0.1766685768312403,336.4030896262323,104.24624378942185)" filter="url(#llleaves-blur-3)" opacity="0.45"></path><path d="M334 740H384C412 740 434 762 434 790H384C356 790 334 768 334 740Z " transform="matrix(-0.3817852130715697,-0.03340187804559167,0.03340187804559167,-0.3817852130715697,505.0530851146051,1069.892009169258)" filter="url(#llleaves-blur-2)" opacity="0.59"></path><path d="M207 279H257C285 279 307 301 307 329H257C229 329 207 307 207 279Z " transform="matrix(-0.10646786186619323,0.25082256426166794,-0.25082256426166794,-0.10646786186619323,360.6123000351587,271.9048309920741)" filter="url(#llleaves-blur-3)" opacity="0.42"></path><path d="M713 442H763C791 442 813 464 813 492H763C735 492 713 470 713 442Z " transform="matrix(0.5093853276220964,-0.3182992795433406,0.3182992795433406,0.5093853276220964,225.69323147760042,471.9794022920498)" opacity="0.92"></path><path d="M722 745H772C800 745 822 767 822 795H772C744 795 722 773 722 745Z " transform="matrix(0.47398495541034374,-0.3571732828372568,0.3571732828372568,0.47398495541034374,131.06018663852694,680.7693586843976)" opacity="0.91"></path><path d="M404 9H454C482 9 504 31 504 59H454C426 59 404 37 404 9Z " transform="matrix(-0.28926255060820505,0.16034085004844276,-0.16034085004844276,-0.28926255060820505,590.7767868777722,-28.95981920131404)" filter="url(#llleaves-blur-2)" opacity="0.51"></path><path d="M654 393H704C732 393 754 415 754 443H704C676 443 654 421 654 393Z " transform="matrix(0.4819726642012214,-0.35017363787823447,0.35017363787823447,0.4819726642012214,218.31866376923813,463.05766743016653)" opacity="0.92"></path><path d="M270 561H320C348 561 370 583 370 611H320C292 611 270 589 270 561Z " transform="matrix(-0.2716013900054838,0.17638000499255957,-0.17638000499255957,-0.2716013900054838,510.2711277273947,688.7168129455945)" filter="url(#llleaves-blur-2)" opacity="0.50"></path><path d="M520 98H570C598 98 620 120 620 148H570C542 148 520 126 520 98Z " transform="matrix(-0.23330321076620716,-0.40409301461602065,0.40409301461602065,-0.23330321076620716,653.2793893389676,382.02931325537526)" opacity="0.72"></path><path d="M483 15H533C561 15 583 37 583 65H533C505 65 483 43 483 15Z " transform="matrix(-0.38412642342774145,-0.10292636494891863,0.10292636494891863,-0.38412642342774145,733.6223290890294,110.2248094548833)" filter="url(#llleaves-blur-2)" opacity="0.61"></path><path d="M477 555H527C555 555 577 577 577 605H527C499 605 477 583 477 555Z " transform="matrix(-0.22077180374239885,-0.41521137410057596,0.41521137410057596,-0.22077180374239885,402.52414359391014,926.8640403215948)" opacity="0.72"></path><path d="M364 291H414C442 291 464 313 464 341H414C386 341 364 319 364 291Z " transform="matrix(-0.38422412793158944,-0.10295254479182159,0.10295254479182159,-0.38422412793158944,540.5357848094625,480.0371779701964)" filter="url(#llleaves-blur-2)" opacity="0.61"></path><path d="M289 252H339C367 252 389 274 389 302H339C311 302 289 280 289 252Z " transform="matrix(-0.3091276379266424,0.13763249182661227,-0.13763249182661227,-0.3091276379266424,481.9184694931034,315.9709409764584)" filter="url(#llleaves-blur-2)" opacity="0.52"></path><path d="M606 738H656C684 738 706 760 706 788H656C628 788 606 766 606 738Z " transform="matrix(0.3156959973492198,-0.4680385635856555,0.4680385635856555,0.3156959973492198,91.79000172305666,829.1572517347353)" opacity="0.87"></path><path d="M290 478H340C368 478 390 500 390 528H340C312 528 290 506 290 478Z " transform="matrix(-0.3091276379266424,0.13763249182661227,-0.13763249182661227,-0.3091276379266424,514.3325402838444,611.696154656053)" filter="url(#llleaves-blur-2)" opacity="0.52"></path><path d="M107 635H157C185 635 207 657 207 685H157C129 685 107 663 107 635Z " transform="matrix(0.02769386678246586,0.22554844500658008,-0.22554844500658008,0.02769386678246586,301.51403661949576,606.3109420575395)" filter="url(#llleaves-blur-3)" opacity="0.35"></path><path d="M440 412H490C518 412 540 434 540 462H490C462 462 440 440 440 412Z " transform="matrix(-0.2853032012169813,-0.35232011193319807,0.35232011193319807,-0.2853032012169813,475.8346796815133,734.3143537790879)" opacity="0.70"></path><path d="M638 601H688C716 601 738 623 738 651H688C660 651 638 629 638 601Z " transform="matrix(0.44327400998957417,-0.38533221810255447,0.38533221810255447,0.44327400998957417,141.80951259497385,613.619035801084)" opacity="0.90"></path><path d="M466 621H516C544 621 566 643 566 671H516C488 671 466 649 466 621Z " transform="matrix(-0.25147581038216693,-0.38723878965437847,0.38723878965437847,-0.25147581038216693,395.60526004046966,1008.2685889685391)" opacity="0.71"></path><path d="M719 383H769C797 383 819 405 819 433H769C741 433 719 411 719 383Z " transform="matrix(0.47398495541034374,-0.3571732828372568,0.3571732828372568,0.47398495541034374,258.77886989184486,489.28039269443025)" opacity="0.91"></path><path d="M717 500H767C795 500 817 522 817 550H767C739 550 717 528 717 500Z " transform="matrix(0.47398495541034374,-0.3571732828372568,0.3571732828372568,0.47398495541034374,215.9375657107065,550.1098063457455)" opacity="0.91"></path><path d="M564 309H614C642 309 664 331 664 359H614C586 359 564 337 564 309Z " transform="matrix(0.07304335450577887,-0.5197304730717951,0.5197304730717951,0.07304335450577887,395.56140232747225,628.718030061152)" opacity="0.81"></path><path d="M-10 15H40C68 15 90 37 90 65H40C12 65 -10 43 -10 15Z " transform="matrix(-0.240898719042266,0.2021380262994447,-0.2021380262994447,-0.240898719042266,57.72146981366843,41.55042770971285)" filter="url(#llleaves-blur-2)" opacity="0.48"></path><path d="M178 738H228C256 738 278 760 278 788H228C200 788 178 766 178 738Z " transform="matrix(-0.04388276432775295,0.2488715235265539,-0.2488715235265539,-0.04388276432775295,427.8942427174883,739.7398418180212)" filter="url(#llleaves-blur-3)" opacity="0.39"></path><path d="M654 671H704C732 671 754 693 754 721H704C676 721 654 699 654 671Z " transform="matrix(0.4819726642012214,-0.35017363787823447,0.35017363787823447,0.4819726642012214,120.97039243908898,607.0692667822269)" opacity="0.92"></path><path d="M-18 571H32C60 571 82 593 82 621H32C4 621 -18 599 -18 571Z " transform="matrix(0.10180452775930715,0.15676522545424615,-0.15676522545424615,0.10180452775930715,122.17432948243294,530.308014240917)" filter="url(#llleaves-blur-4)" opacity="0.28"></path><path d="M70 16H120C148 16 170 38 170 66H120C92 66 70 44 70 16Z " transform="matrix(-0.281103665322143,0.16890412235637906,-0.16890412235637906,-0.281103665322143,160.6575088552687,32.25675559544238)" filter="url(#llleaves-blur-2)" opacity="0.50"></path><path d="M-5 738H45C73 738 95 760 95 788H45C17 788 -5 766 -5 738Z " transform="matrix(0.09615064691054137,0.1665378056296731,-0.1665378056296731,0.09615064691054137,167.74156658446623,682.1428551539217)" filter="url(#llleaves-blur-4)" opacity="0.29"></path><path d="M135 327H185C213 327 235 349 235 377H185C157 377 135 355 135 327Z " transform="matrix(1.4560451210439974e-17,0.23779021380821844,-0.23779021380821844,1.4560451210439974e-17,268.7021552604929,308.0088104454796)" filter="url(#llleaves-blur-3)" opacity="0.36"></path><path d="M718 683H768C796 683 818 705 818 733H768C740 733 718 711 718 683Z " transform="matrix(0.47398495541034374,-0.3571732828372568,0.3571732828372568,0.47398495541034374,151.10086999607813,646.7277327884898)" opacity="0.91"></path><path d="M121 248H171C199 248 221 270 221 298H171C143 298 121 276 121 248Z " transform="matrix(0.016188975649436013,0.23151313780062016,-0.23151313780062016,0.016188975649436013,231.43477178351574,228.99166308379793)" filter="url(#llleaves-blur-3)" opacity="0.35"></path><path d="M645 193H695C723 193 745 215 745 243H695C667 243 645 221 645 193Z " transform="matrix(0.44327400998957417,-0.38533221810255447,0.38533221810255447,0.44327400998957417,302.92213951088905,389.1721574035482)" opacity="0.90"></path><path d="M711 10H761C789 10 811 32 811 60H761C733 60 711 38 711 10Z " transform="matrix(0.48813836230315927,-0.3417981609740149,0.3417981609740149,0.48813836230315927,377.56377065320527,278.02355782061477)" opacity="0.92"></path><path d="M520 419H570C598 419 620 441 620 469H570C542 469 520 447 520 419Z " transform="matrix(-0.0696173721946042,-0.4953533422654409,0.4953533422654409,-0.0696173721946042,389.7450181850686,757.2615183457058)" opacity="0.77"></path><path d="M431 238H481C509 238 531 260 531 288H481C453 288 431 266 431 238Z " transform="matrix(-0.3088523305333268,-0.31982595075212433,0.31982595075212433,-0.3088523305333268,545.4437459387215,498.06444524203675)" opacity="0.68"></path><path d="M710 147H760C788 147 810 169 810 197H760C732 197 710 175 710 147Z " transform="matrix(0.5655231452406815,-0.24005033313831656,0.24005033313831656,0.5655231452406815,288.9137523172917,257.1682722037234)" opacity="0.94"></path><path d="M655 524H705C733 524 755 546 755 574H705C677 574 655 552 655 524Z " transform="matrix(0.4819726642012214,-0.35017363787823447,0.35017363787823447,0.4819726642012214,172.9639445429882,531.2694220576848)" opacity="0.92"></path><path d="M422 159H472C500 159 522 181 522 209H472C444 209 422 187 422 159Z " transform="matrix(-0.3088523305333268,-0.31982595075212433,0.31982595075212433,-0.3088523305333268,558.9303250733394,391.78667757313474)" opacity="0.68"></path><path d="M366 447H416C444 447 466 469 466 497H416C388 497 366 475 366 447Z " transform="matrix(-0.38422412793158944,-0.10295254479182159,0.10295254479182159,-0.38422412793158944,527.2436360778015,696.1820470171081)" filter="url(#llleaves-blur-2)" opacity="0.61"></path><path d="M141 74H191C219 74 241 96 241 124H191C163 124 141 102 141 74Z " transform="matrix(-0.18176637910088286,0.23265035594420996,-0.23265035594420996,-0.18176637910088286,248.7497636467454,72.5586535456433)" filter="url(#llleaves-blur-3)" opacity="0.45"></path><path d="M651 99H701C729 99 751 121 751 149H701C673 149 651 127 651 99Z " transform="matrix(0.5547141500295959,-0.25866745624574183,0.25866745624574183,0.5547141500295959,280.07061625478127,236.54133222459518)" opacity="0.94"></path><path d="M67 473H117C145 473 167 495 167 523H117C89 523 67 501 67 473Z " transform="matrix(0.04546253260639833,0.21388439975320742,-0.21388439975320742,0.04546253260639833,218.19531476214877,450.33518399088837)" filter="url(#llleaves-blur-3)" opacity="0.33"></path><path d="M350 137H400C428 137 450 159 450 187H400C372 187 350 165 350 137Z " transform="matrix(-0.3677894563669775,0.02571834415017965,-0.02571834415017965,-0.3677894563669775,551.2821542991201,211.29455427137847)" filter="url(#llleaves-blur-2)" opacity="0.57"></path><path d="M58 101H108C136 101 158 123 158 151H108C80 151 58 129 58 101Z " transform="matrix(0.008168839918115673,0.23392496892275125,-0.23392496892275125,0.008168839918115673,136.59231137311016,99.70682952666029)" filter="url(#llleaves-blur-3)" opacity="0.36"></path><path d="M-10 419H40C68 419 90 441 90 469H40C12 469 -10 447 -10 419Z " transform="matrix(0.09615064691054137,0.1665378056296731,-0.1665378056296731,0.09615064691054137,110.09675982315319,394.6476005465327)" filter="url(#llleaves-blur-4)" opacity="0.29"></path><path d="M171 666H221C249 666 271 688 271 716H221C193 716 171 694 171 666Z " transform="matrix(-0.04388276432775295,0.2488715235265539,-0.2488715235265539,-0.04388276432775295,402.66831367328217,666.3223834511089)" filter="url(#llleaves-blur-3)" opacity="0.39"></path><path d="M-15 651H35C63 651 85 673 85 701H35C7 701 -15 679 -15 651Z " transform="matrix(0.09615064691054137,0.1665378056296731,-0.1665378056296731,0.09615064691054137,144.21428396379008,605.1733394914355)" filter="url(#llleaves-blur-4)" opacity="0.29"></path><path d="M58 198H108C136 198 158 220 158 248H108C80 248 58 226 58 198Z " transform="matrix(0.055436501970057575,0.20689184194614704,-0.20689184194614704,0.055436501970057575,148.14973854122454,188.29334113049327)" filter="url(#llleaves-blur-3)" opacity="0.33"></path><path d="M403 582H453C481 582 503 604 503 632H453C425 632 403 610 403 582Z " transform="matrix(-0.33803807015361276,-0.27373783182244943,0.27373783182244943,-0.33803807015361276,439.9723818633598,936.1923463988126)" opacity="0.67"></path><path d="M519 671H569C597 671 619 693 619 721H569C541 721 519 699 519 671Z " transform="matrix(-0.0696173721946042,-0.4953533422654409,0.4953533422654409,-0.0696173721946042,263.8463585619829,1026.3097427964806)" opacity="0.77"></path><path d="M583 387H633C661 387 683 409 683 437H633C605 437 583 415 583 387Z " transform="matrix(0.15732280143001795,-0.5145796970046347,0.5145796970046347,0.15732280143001795,321.4078315288891,672.9119540147663)" opacity="0.83"></path><path d="M382 662H432C460 662 482 684 482 712H432C404 712 382 690 382 662Z " transform="matrix(-0.37594105728009486,-0.16737974268631753,0.16737974268631753,-0.37594105728009486,479.4166535195008,1017.5795551919143)" opacity="0.63"></path><path d="M-12 173H38C66 173 88 195 88 223H38C10 223 -12 201 -12 173Z " transform="matrix(0.09615064691054137,0.1665378056296731,-0.1665378056296731,0.09615064691054137,67.3207609320747,172.63373529778522)" filter="url(#llleaves-blur-4)" opacity="0.29"></path><path d="M575 468H625C653 468 675 490 675 518H625C597 518 575 496 575 468Z " transform="matrix(0.15732280143001795,-0.5145796970046347,0.5145796970046347,0.15732280143001795,272.9854584829539,737.0521695228979)" opacity="0.83"></path><path d="M95 737H145C173 737 195 759 195 787H145C117 787 95 765 95 737Z " transform="matrix(0.03870663326557229,0.2195162255376501,-0.2195162255376501,0.03870663326557229,306.6589020361814,700.6756927486747)" filter="url(#llleaves-blur-3)" opacity="0.34"></path><path d="M49 677H99C127 677 149 699 149 727H99C71 727 49 705 49 677Z " transform="matrix(0.06466978889373196,0.19903314463083788,-0.19903314463083788,0.06466978889373196,232.31895843036872,636.8975268781472)" filter="url(#llleaves-blur-3)" opacity="0.32"></path><path d="M598 545H648C676 545 698 567 698 595H648C620 595 598 573 598 545Z " transform="matrix(0.24175847440599282,-0.49567832880895707,0.49567832880895707,0.24175847440599282,208.80386116381118,753.3972266567882)" opacity="0.85"></path></g></svg>