<svg width="430" height="430" viewBox="0 0 430 430" fill="none" xmlns="http://www.w3.org/2000/svg">
<path d="M329.85 236.59C355.66 284.18 350.13 340.71 350.13 340.71C336.37 300.77 304.01 268.39 256.53 242.25C235.94 230.91 214.19 224.59 192.24 221.81C184.79 220.86 177.32 220.33 169.85 220.14C166.39 220.06 162.93 220.05 159.47 220.11L155.65 151.22C157.81 150.45 159.98 149.72 162.17 149.03C164.58 148.27 167 147.55 169.43 146.88C216.58 133.95 268.62 138.66 314.84 164.1C355.93 186.72 385.63 221.99 401.76 262.42C401.11 261.95 375.5 241.97 329.85 236.59Z" fill="#FFC738"/>
<path d="M155.65 151.22C206.27 133.23 264.06 136.16 314.83 164.1C355.92 186.72 385.63 221.99 401.76 262.42C401.11 261.95 375.49 241.97 329.84 236.6C355.65 284.19 350.12 340.72 350.12 340.72C336.36 300.78 304 268.39 256.52 242.26C225.69 225.29 192.28 219.55 159.46 220.12" stroke="#121331" stroke-width="7" stroke-linecap="round" stroke-linejoin="round"/>
<path d="M120.59 89.5L149.05 147.16L212.69 156.41L166.64 201.29L177.51 264.67L120.59 234.75L63.68 264.67L74.55 201.29L28.5 156.41L92.14 147.16L120.59 89.5Z" fill="#FFC738"/>
<g style="mix-blend-mode:multiply" opacity="0.5">
<path d="M63.68 264.67L74.55 201.29L28.5 156.41L120.6 177.09L63.68 264.67Z" fill="#FFC738"/>
</g>
<g style="mix-blend-mode:multiply" opacity="0.5">
<path d="M120.6 234.75V177.09L177.51 264.67L120.6 234.75Z" fill="#FFC738"/>
</g>
<g style="mix-blend-mode:multiply" opacity="0.5">
<path d="M92.1406 147.16L120.601 177.09V89.5L92.1406 147.16Z" fill="#FFC738"/>
</g>
<g style="mix-blend-mode:multiply" opacity="0.5">
<path d="M212.69 156.41L120.6 177.09L166.64 201.29L212.69 156.41Z" fill="#FFC738"/>
</g>
<path d="M120.59 89.5L149.05 147.16L212.69 156.41L166.64 201.29L177.51 264.67L120.59 234.75L63.68 264.67L74.55 201.29L28.5 156.41L92.14 147.16L120.59 89.5Z" stroke="#121331" stroke-width="7" stroke-linecap="round" stroke-linejoin="round"/>
</svg>
