<?xml version="1.0" standalone="no"?>
<svg viewBox="0 0 200 200" xmlns="http://www.w3.org/2000/svg">
  <path fill="#E5F7FB" d="M30.3,-54.9C37.5,-42.5,40.5,-31.1,38.3,-21.7C36.1,-12.2,28.9,-4.5,33.7,9.2C38.5,23,55.5,42.9,53.8,48.8C52.1,54.7,31.7,46.7,16.5,46.9C1.3,47.1,-8.7,55.5,-22.5,59.4C-36.3,63.2,-53.8,62.5,-65.8,54C-77.9,45.5,-84.4,29.3,-82.9,14.3C-81.3,-0.7,-71.6,-14.5,-58.7,-20.2C-45.8,-25.9,-29.7,-23.5,-19.4,-34.5C-9.1,-45.5,-4.5,-69.9,3.5,-75.4C11.5,-80.8,23.1,-67.3,30.3,-54.9Z" transform="translate(100 100)" />
</svg>
