<?xml version="1.0" standalone="no"?>
<svg viewBox="0 0 200 200" xmlns="http://www.w3.org/2000/svg">
  <path fill="#E5F7FB" d="M33.9,-54.9C40.3,-48.5,39.5,-33.1,37.9,-21.7C36.2,-10.3,33.7,-2.9,31,3.3C28.3,9.5,25.4,14.5,21.8,19.4C18.3,24.3,14.1,29.1,8.5,32.3C2.8,35.5,-4.3,37.1,-7.7,32.9C-11.1,28.8,-10.8,19,-23.2,14.6C-35.7,10.2,-60.8,11.3,-65.2,6.9C-69.6,2.6,-53.3,-7.1,-45.7,-19.7C-38.2,-32.3,-39.4,-47.7,-33.2,-54.2C-27.1,-60.7,-13.5,-58.2,0.1,-58.3C13.7,-58.5,27.4,-61.2,33.9,-54.9Z" transform="translate(100 100)" />
</svg>
