<?xml version="1.0" standalone="no"?>
<svg viewBox="0 0 200 200" xmlns="http://www.w3.org/2000/svg">
  <path fill="#E5F7FB" d="M22.1,-36.6C30.2,-29.1,39.5,-25.7,40.4,-19.6C41.4,-13.6,34,-4.9,36,7.7C38.1,20.2,49.5,36.5,46.3,40.1C43.1,43.7,25.3,34.5,13.1,32.5C0.9,30.5,-5.5,35.7,-10.2,34.4C-14.8,33.2,-17.7,25.5,-20.4,19.3C-23.1,13.2,-25.7,8.6,-28.3,2.9C-31,-2.8,-33.6,-9.7,-31.6,-14.6C-29.6,-19.5,-23,-22.4,-16.9,-30.8C-10.8,-39.2,-5.4,-53.2,0.8,-54.4C7,-55.6,14,-44.1,22.1,-36.6Z" transform="translate(100 100)" />
</svg>
