<?xml version="1.0" standalone="no"?>
<svg viewBox="0 0 200 200" xmlns="http://www.w3.org/2000/svg">
  <path fill="#E5F7FB" d="M26.9,-36.8C38.3,-34.5,53.5,-32.9,56.5,-25.9C59.6,-18.9,50.5,-6.5,50.2,8.4C50,23.3,58.4,40.6,53.6,46.6C48.7,52.6,30.5,47.2,16,49C1.5,50.7,-9.3,59.7,-13.7,54.7C-18,49.7,-15.8,30.7,-15,19.7C-14.1,8.6,-14.7,5.4,-23,-1.4C-31.3,-8.2,-47.5,-18.6,-50.5,-27.7C-53.6,-36.8,-43.6,-44.5,-33,-47.2C-22.4,-49.9,-11.2,-47.6,-1.7,-44.9C7.7,-42.2,15.4,-39.1,26.9,-36.8Z" transform="translate(100 100)" />
</svg>
